{"title":"Real Virgin Defloration After Gyn Examination (Incredible Hard H","uid":7360596,"size":612360192,"categoryP":"porn","categoryS":"movies","magnet":"?xt=urn:btih:89262514cb9d80dd2cb7cd8fdb9209be1d7c564f&amp;dn=Real+Virgin+Defloration+After+Gyn+Examination+%28Incredible+Hard+H&amp;tr=udp%3A%2F%2Ftracker.openbittorrent.com%3A80&amp;tr=udp%3A%2F%2Fopen.demonii.com%3A1337&amp;tr=udp%3A%2F%2Ftracker.coppersurfer.tk%3A6969&amp;tr=udp%3A%2F%2Fexodus.desync.com%3A6969","seeders":2,"leechers":0,"uploader":"soulless123","files":1,"time":1339950148,"description":"Screens\n &lt;a href=&quot;\nhttp://bayimg.com/AapBIAadd&quot; rel=&quot;nofollow&quot; target=&quot;_NEW&quot;&gt;\nhttp://bayimg.com/AapBIAadd&lt;/a&gt;\n\n\nSeeding Time 24/7\n\nDon't Forget To Say Thanks If You Like My Post\n\n\n\n-=Media Info=-\n\nFormat : AVI\nFormat/Info : Audio Video Interleave\nFile size : 584 MiB\nDuration : 1h 49mn\nOverall bit rate : 746 Kbps\nWriting library : VirtualDub build 11636/release\n\nVideo\nID : 0\nFormat : MPEG-4 Visual\nCodec ID : DIV3\nCodec ID/Hint : DivX 3 Low\nDuration : 1h 49mn\nBit rate : 652 Kbps\nWidth : 352 pixels\nHeight : 240 pixels\nDisplay aspect ratio : 3:2\nFrame rate : 15.000 fps\nStandard : NTSC\nColor space : YUV\nChroma subsampling : 40\nBit depth : 8 bits\nCompression mode : Lossy\nBits/(Pixel*Frame) : 0.515\nStream size : 510 MiB (87%)\n\nAudio\nID : 1\nFormat : PCM\nFormat settings, Sign : Unsigned\nCodec ID : 1\nDuration : 1h 49mn\nBit rate mode : Constant\nBit rate : 88.2 Kbps\nChannel(s) : 1 channel\nSampling rate : 11.025 KHz\nBit depth : 8 bits\nStream size : 69.0 MiB (12%)\nInterleave, duration : 67 ms (1.00 video frame)\nInterleave, preload duration : 499 ms\n","torrent":{"xt":"urn:btih:89262514cb9d80dd2cb7cd8fdb9209be1d7c564f","amp;dn":"Real+Virgin+Defloration+After+Gyn+Examination+%28Incredible+Hard+H","amp;tr":["udp%3A%2F%2Ftracker.openbittorrent.com%3A80","udp%3A%2F%2Fopen.demonii.com%3A1337","udp%3A%2F%2Ftracker.coppersurfer.tk%3A6969","udp%3A%2F%2Fexodus.desync.com%3A6969"],"infoHash":"89262514cb9d80dd2cb7cd8fdb9209be1d7c564f","infoHashBuffer":{"type":"Buffer","data":[137,38,37,20,203,157,128,221,44,183,205,143,219,146,9,190,29,124,86,79]},"announce":[],"urlList":[]}}